<svg xmlns="http://www.w3.org/2000/svg" viewBox="0 0 64 64" width="64" height="64">
  <rect width="64" height="64" rx="14" fill="#D95D0F"/>
  <!-- Tiffin Box Handle & Top Container -->
  <path d="M26 13 C26 10, 38 10, 38 13" fill="none" stroke="#FAF7F2" stroke-width="2.5" stroke-linecap="round"/>
  <!-- Top Lid -->
  <path d="M20 17 C20 15, 44 15, 44 17 L42 20 L22 20 Z" fill="#FAF7F2"/>
  <!-- Tier 1 -->
  <rect x="18" y="22" width="28" height="9" rx="2.5" fill="#FAF7F2"/>
  <line x1="20" y1="26.5" x2="44" y2="26.5" stroke="#D95D0F" stroke-width="1.2" stroke-dasharray="2 1.5"/>
  <!-- Tier 2 -->
  <rect x="18" y="33" width="28" height="9" rx="2.5" fill="#FAF7F2"/>
  <line x1="20" y1="37.5" x2="44" y2="37.5" stroke="#D95D0F" stroke-width="1.2" stroke-dasharray="2 1.5"/>
  <!-- Tier 3 (Bottom) -->
  <rect x="18" y="44" width="28" height="9" rx="2.5" fill="#FAF7F2"/>
  <line x1="20" y1="48.5" x2="44" y2="48.5" stroke="#D95D0F" stroke-width="1.2" stroke-dasharray="2 1.5"/>
  <!-- Side Clasps / Carrier Frame -->
  <path d="M15 20 L15 52 C15 54, 49 54, 49 52 L49 20" fill="none" stroke="#FAF7F2" stroke-width="2" stroke-linecap="round"/>
</svg>
